<svg xmlns="http://www.w3.org/2000/svg" viewBox="0 0 24 24" fill="none" stroke="#5C3A1E" stroke-width="1.5" stroke-linecap="round" stroke-linejoin="round"><path d="M12 2C6.48 2 2 6.48 2 12s4.48 10 10 10c1.1 0 2-.9 2-2 0-.53-.21-1.01-.54-1.37-.33-.35-.46-.82-.46-1.28 0-1.1.9-2 2-2h2.36c3.07 0 5.64-2.57 5.64-5.64C23 5.82 18.05 2 12 2z" fill="#8B5E3C"/><circle cx="7.5" cy="11.5" r="1.5" fill="#E53935" stroke="none"/><circle cx="10" cy="7" r="1.5" fill="#1E88E5" stroke="none"/><circle cx="15" cy="7" r="1.5" fill="#FDD835" stroke="none"/><circle cx="17.5" cy="11.5" r="1.5" fill="#43A047" stroke="none"/></svg>